# xmcd CD database file
#
# Track frame offsets:
#	182
#	13760
#	29277
#	46370
#	60570
#	79927
#	98195
#	116097
#	131670
#	157437
#	181500
#
# Disc length: 2607 seconds
#
# Revision: 5
# Processed by: cddbd v1.5.2PL0 Copyright (c) Steve Scherf et al.
# Submitted via: CDex 1.70beta2
#
DISCID=900a2d0b
DTITLE=Vince Gill - High Lonesome Sound
DYEAR=1996
DGENRE=Country
TTITLE0=One Dance With You
TTITLE1=High Lonesome Sound
TTITLE2=Pretty Little Adriana
TTITLE3=A Little More Love
TTITLE4=Down To New Orleans
TTITLE5=Tell Me Lover
TTITLE6=Given More Time
TTITLE7=You And You Alone
TTITLE8=Worlds Apart
TTITLE9=Jenny Dreamed Of Trains
TTITLE10=High Lonesome Sound (fet. Alison Krauss and Union Station)
EXTD=YEAR: 1996
EXTT0=
EXTT1=
EXTT2=
EXTT3=
EXTT4=
EXTT5=
EXTT6=
EXTT7=
EXTT8=
EXTT9=
EXTT10=
PLAYORDER=
